<svg xmlns="http://www.w3.org/2000/svg" viewBox="0 0 32 32">
  <!-- 背景 -->
  <rect width="32" height="32" rx="6" fill="#5c4d3d"/>
  
  <!-- 房屋轮廓 -->
  <path d="M16 6L6 14v12h8v-6h4v6h8V14L16 6z" fill="#faf9f7" opacity="0.95"/>
  
  <!-- 屋顶强调线 -->
  <path d="M16 6L4 15h2v1L16 8l10 8h2v-1H16z" fill="#faf9f7"/>
  
  <!-- 门/入口 -->
  <rect x="13" y="20" width="6" height="6" fill="#5c4d3d"/>
  
  <!-- 设计工具标志 - 铅笔 -->
  <g transform="translate(20, 20) rotate(45)">
    <rect x="0" y="0" width="3" height="10" rx="0.5" fill="#8b7355"/>
    <polygon points="0,10 1.5,13 3,10" fill="#8b7355"/>
    <rect x="0" y="0" width="3" height="2" fill="#d4cfc6"/>
  </g>
  
  <!-- 网格/设计线 -->
  <g stroke="#faf9f7" stroke-width="0.5" opacity="0.3">
    <line x1="8" y1="18" x2="12" y2="18"/>
    <line x1="8" y1="21" x2="12" y2="21"/>
    <line x1="20" y1="18" x2="24" y2="18"/>
    <line x1="20" y1="21" x2="24" y2="21"/>
  </g>
</svg>
